<svg class="rich-terminal" viewBox="0 0 1238 782.0" xmlns="http://www.w3.org/2000/svg">
    <!-- Generated with Rich https://www.textualize.io -->
    <style>

    @font-face {
        font-family: "Fira Code";
        src: local("FiraCode-Regular"),
                url("https://cdnjs.cloudflare.com/ajax/libs/firacode/6.2.0/woff2/FiraCode-Regular.woff2") format("woff2"),
                url("https://cdnjs.cloudflare.com/ajax/libs/firacode/6.2.0/woff/FiraCode-Regular.woff") format("woff");
        font-style: normal;
        font-weight: 400;
    }
    @font-face {
        font-family: "Fira Code";
        src: local("FiraCode-Bold"),
                url("https://cdnjs.cloudflare.com/ajax/libs/firacode/6.2.0/woff2/FiraCode-Bold.woff2") format("woff2"),
                url("https://cdnjs.cloudflare.com/ajax/libs/firacode/6.2.0/woff/FiraCode-Bold.woff") format("woff");
        font-style: bold;
        font-weight: 700;
    }

    .terminal-1906211230-matrix {
        font-family: Fira Code, monospace;
        font-size: 20px;
        line-height: 24.4px;
        font-variant-east-asian: full-width;
    }

    .terminal-1906211230-title {
        font-size: 18px;
        font-weight: bold;
        font-family: arial;
    }

    .terminal-1906211230-r1 { fill: #c5c8c6 }
.terminal-1906211230-r2 { fill: #cad3f5 }
.terminal-1906211230-r3 { fill: #cad3f5;font-weight: bold }
.terminal-1906211230-r4 { fill: #8aadf4;font-weight: bold }
.terminal-1906211230-r5 { fill: #6e738d }
.terminal-1906211230-r6 { fill: #a6da95;font-weight: bold }
.terminal-1906211230-r7 { fill: #a5adcb }
.terminal-1906211230-r8 { fill: #eed49f;font-weight: bold }
.terminal-1906211230-r9 { fill: #ed8796;font-weight: bold }
.terminal-1906211230-r10 { fill: #8bd5ca }
.terminal-1906211230-r11 { fill: #f5bde6;font-weight: bold }
.terminal-1906211230-r12 { fill: #404357 }
    </style>

    <defs>
    <clipPath id="terminal-1906211230-clip-terminal">
      <rect x="0" y="0" width="1219.0" height="731.0" />
    </clipPath>
    <clipPath id="terminal-1906211230-line-0">
    <rect x="0" y="1.5" width="1220" height="24.65"/>
            </clipPath>
<clipPath id="terminal-1906211230-line-1">
    <rect x="0" y="25.9" width="1220" height="24.65"/>
            </clipPath>
<clipPath id="terminal-1906211230-line-2">
    <rect x="0" y="50.3" width="1220" height="24.65"/>
            </clipPath>
<clipPath id="terminal-1906211230-line-3">
    <rect x="0" y="74.7" width="1220" height="24.65"/>
            </clipPath>
<clipPath id="terminal-1906211230-line-4">
    <rect x="0" y="99.1" width="1220" height="24.65"/>
            </clipPath>
<clipPath id="terminal-1906211230-line-5">
    <rect x="0" y="123.5" width="1220" height="24.65"/>
            </clipPath>
<clipPath id="terminal-1906211230-line-6">
    <rect x="0" y="147.9" width="1220" height="24.65"/>
            </clipPath>
<clipPath id="terminal-1906211230-line-7">
    <rect x="0" y="172.3" width="1220" height="24.65"/>
            </clipPath>
<clipPath id="terminal-1906211230-line-8">
    <rect x="0" y="196.7" width="1220" height="24.65"/>
            </clipPath>
<clipPath id="terminal-1906211230-line-9">
    <rect x="0" y="221.1" width="1220" height="24.65"/>
            </clipPath>
<clipPath id="terminal-1906211230-line-10">
    <rect x="0" y="245.5" width="1220" height="24.65"/>
            </clipPath>
<clipPath id="terminal-1906211230-line-11">
    <rect x="0" y="269.9" width="1220" height="24.65"/>
            </clipPath>
<clipPath id="terminal-1906211230-line-12">
    <rect x="0" y="294.3" width="1220" height="24.65"/>
            </clipPath>
<clipPath id="terminal-1906211230-line-13">
    <rect x="0" y="318.7" width="1220" height="24.65"/>
            </clipPath>
<clipPath id="terminal-1906211230-line-14">
    <rect x="0" y="343.1" width="1220" height="24.65"/>
            </clipPath>
<clipPath id="terminal-1906211230-line-15">
    <rect x="0" y="367.5" width="1220" height="24.65"/>
            </clipPath>
<clipPath id="terminal-1906211230-line-16">
    <rect x="0" y="391.9" width="1220" height="24.65"/>
            </clipPath>
<clipPath id="terminal-1906211230-line-17">
    <rect x="0" y="416.3" width="1220" height="24.65"/>
            </clipPath>
<clipPath id="terminal-1906211230-line-18">
    <rect x="0" y="440.7" width="1220" height="24.65"/>
            </clipPath>
<clipPath id="terminal-1906211230-line-19">
    <rect x="0" y="465.1" width="1220" height="24.65"/>
            </clipPath>
<clipPath id="terminal-1906211230-line-20">
    <rect x="0" y="489.5" width="1220" height="24.65"/>
            </clipPath>
<clipPath id="terminal-1906211230-line-21">
    <rect x="0" y="513.9" width="1220" height="24.65"/>
            </clipPath>
<clipPath id="terminal-1906211230-line-22">
    <rect x="0" y="538.3" width="1220" height="24.65"/>
            </clipPath>
<clipPath id="terminal-1906211230-line-23">
    <rect x="0" y="562.7" width="1220" height="24.65"/>
            </clipPath>
<clipPath id="terminal-1906211230-line-24">
    <rect x="0" y="587.1" width="1220" height="24.65"/>
            </clipPath>
<clipPath id="terminal-1906211230-line-25">
    <rect x="0" y="611.5" width="1220" height="24.65"/>
            </clipPath>
<clipPath id="terminal-1906211230-line-26">
    <rect x="0" y="635.9" width="1220" height="24.65"/>
            </clipPath>
<clipPath id="terminal-1906211230-line-27">
    <rect x="0" y="660.3" width="1220" height="24.65"/>
            </clipPath>
<clipPath id="terminal-1906211230-line-28">
    <rect x="0" y="684.7" width="1220" height="24.65"/>
            </clipPath>
    </defs>

    <rect fill="#292929" stroke="rgba(255,255,255,0.35)" stroke-width="1" x="1" y="1" width="1236" height="780" rx="8"/><text class="terminal-1906211230-title" fill="#c5c8c6" text-anchor="middle" x="618" y="27">dbfresh</text>
            <g transform="translate(26,22)">
            <circle cx="0" cy="0" r="7" fill="#ff5f57"/>
            <circle cx="22" cy="0" r="7" fill="#febc2e"/>
            <circle cx="44" cy="0" r="7" fill="#28c840"/>
            </g>
        
    <g transform="translate(9, 41)" clip-path="url(#terminal-1906211230-clip-terminal)">
    <rect fill="#1e2030" x="0" y="1.5" width="12.2" height="24.65" shape-rendering="crispEdges"/><rect fill="#1e2030" x="12.2" y="1.5" width="12.2" height="24.65" shape-rendering="crispEdges"/><rect fill="#1e2030" x="24.4" y="1.5" width="61" height="24.65" shape-rendering="crispEdges"/><rect fill="#1e2030" x="85.4" y="1.5" width="12.2" height="24.65" shape-rendering="crispEdges"/><rect fill="#1e2030" x="97.6" y="1.5" width="451.4" height="24.65" shape-rendering="crispEdges"/><rect fill="#1e2030" x="549" y="1.5" width="85.4" height="24.65" shape-rendering="crispEdges"/><rect fill="#1e2030" x="634.4" y="1.5" width="463.6" height="24.65" shape-rendering="crispEdges"/><rect fill="#1e2030" x="1098" y="1.5" width="12.2" height="24.65" shape-rendering="crispEdges"/><rect fill="#1e2030" x="1110.2" y="1.5" width="0" height="24.65" shape-rendering="crispEdges"/><rect fill="#1e2030" x="1110.2" y="1.5" width="109.8" height="24.65" shape-rendering="crispEdges"/><rect fill="#24273a" x="0" y="25.9" width="1220" height="24.65" shape-rendering="crispEdges"/><rect fill="#24273a" x="0" y="50.3" width="12.2" height="24.65" shape-rendering="crispEdges"/><rect fill="#4f536b" x="12.2" y="50.3" width="280.6" height="24.65" shape-rendering="crispEdges"/><rect fill="#4f536b" x="292.8" y="50.3" width="134.2" height="24.65" shape-rendering="crispEdges"/><rect fill="#4f536b" x="427" y="50.3" width="85.4" height="24.65" shape-rendering="crispEdges"/><rect fill="#4f536b" x="512.4" y="50.3" width="85.4" height="24.65" shape-rendering="crispEdges"/><rect fill="#4f536b" x="597.8" y="50.3" width="85.4" height="24.65" shape-rendering="crispEdges"/><rect fill="#4f536b" x="683.2" y="50.3" width="85.4" height="24.65" shape-rendering="crispEdges"/><rect fill="#4f536b" x="768.6" y="50.3" width="85.4" height="24.65" shape-rendering="crispEdges"/><rect fill="#4f536b" x="854" y="50.3" width="85.4" height="24.65" shape-rendering="crispEdges"/><rect fill="#4f536b" x="939.4" y="50.3" width="85.4" height="24.65" shape-rendering="crispEdges"/><rect fill="#4f536b" x="1024.8" y="50.3" width="183" height="24.65" shape-rendering="crispEdges"/><rect fill="#24273a" x="1207.8" y="50.3" width="12.2" height="24.65" shape-rendering="crispEdges"/><rect fill="#24273a" x="0" y="74.7" width="12.2" height="24.65" shape-rendering="crispEdges"/><rect fill="#5b6078" x="12.2" y="74.7" width="280.6" height="24.65" shape-rendering="crispEdges"/><rect fill="#5b6078" x="292.8" y="74.7" width="24.4" height="24.65" shape-rendering="crispEdges"/><rect fill="#5b6078" x="317.2" y="74.7" width="85.4" height="24.65" shape-rendering="crispEdges"/><rect fill="#5b6078" x="402.6" y="74.7" width="24.4" height="24.65" shape-rendering="crispEdges"/><rect fill="#5b6078" x="427" y="74.7" width="24.4" height="24.65" shape-rendering="crispEdges"/><rect fill="#5b6078" x="451.4" y="74.7" width="36.6" height="24.65" shape-rendering="crispEdges"/><rect fill="#5b6078" x="488" y="74.7" width="24.4" height="24.65" shape-rendering="crispEdges"/><rect fill="#5b6078" x="512.4" y="74.7" width="24.4" height="24.65" shape-rendering="crispEdges"/><rect fill="#5b6078" x="536.8" y="74.7" width="36.6" height="24.65" shape-rendering="crispEdges"/><rect fill="#5b6078" x="573.4" y="74.7" width="24.4" height="24.65" shape-rendering="crispEdges"/><rect fill="#5b6078" x="597.8" y="74.7" width="24.4" height="24.65" shape-rendering="crispEdges"/><rect fill="#5b6078" x="622.2" y="74.7" width="36.6" height="24.65" shape-rendering="crispEdges"/><rect fill="#5b6078" x="658.8" y="74.7" width="24.4" height="24.65" shape-rendering="crispEdges"/><rect fill="#5b6078" x="683.2" y="74.7" width="24.4" height="24.65" shape-rendering="crispEdges"/><rect fill="#5b6078" x="707.6" y="74.7" width="36.6" height="24.65" shape-rendering="crispEdges"/><rect fill="#5b6078" x="744.2" y="74.7" width="24.4" height="24.65" shape-rendering="crispEdges"/><rect fill="#5b6078" x="768.6" y="74.7" width="24.4" height="24.65" shape-rendering="crispEdges"/><rect fill="#5b6078" x="793" y="74.7" width="36.6" height="24.65" shape-rendering="crispEdges"/><rect fill="#5b6078" x="829.6" y="74.7" width="24.4" height="24.65" shape-rendering="crispEdges"/><rect fill="#5b6078" x="854" y="74.7" width="24.4" height="24.65" shape-rendering="crispEdges"/><rect fill="#5b6078" x="878.4" y="74.7" width="36.6" height="24.65" shape-rendering="crispEdges"/><rect fill="#5b6078" x="915" y="74.7" width="24.4" height="24.65" shape-rendering="crispEdges"/><rect fill="#5b6078" x="939.4" y="74.7" width="24.4" height="24.65" shape-rendering="crispEdges"/><rect fill="#5b6078" x="963.8" y="74.7" width="36.6" height="24.65" shape-rendering="crispEdges"/><rect fill="#5b6078" x="1000.4" y="74.7" width="24.4" height="24.65" shape-rendering="crispEdges"/><rect fill="#5b6078" x="1024.8" y="74.7" width="183" height="24.65" shape-rendering="crispEdges"/><rect fill="#24273a" x="1207.8" y="74.7" width="12.2" height="24.65" shape-rendering="crispEdges"/><rect fill="#24273a" x="0" y="99.1" width="12.2" height="24.65" shape-rendering="crispEdges"/><rect fill="#3d4157" x="12.2" y="99.1" width="280.6" height="24.65" shape-rendering="crispEdges"/><rect fill="#3d4157" x="292.8" y="99.1" width="24.4" height="24.65" shape-rendering="crispEdges"/><rect fill="#3d4157" x="317.2" y="99.1" width="85.4" height="24.65" shape-rendering="crispEdges"/><rect fill="#3d4157" x="402.6" y="99.1" width="24.4" height="24.65" shape-rendering="crispEdges"/><rect fill="#3d4157" x="427" y="99.1" width="24.4" height="24.65" shape-rendering="crispEdges"/><rect fill="#3d4157" x="451.4" y="99.1" width="36.6" height="24.65" shape-rendering="crispEdges"/><rect fill="#3d4157" x="488" y="99.1" width="24.4" height="24.65" shape-rendering="crispEdges"/><rect fill="#3d4157" x="512.4" y="99.1" width="24.4" height="24.65" shape-rendering="crispEdges"/><rect fill="#3d4157" x="536.8" y="99.1" width="36.6" height="24.65" shape-rendering="crispEdges"/><rect fill="#3d4157" x="573.4" y="99.1" width="24.4" height="24.65" shape-rendering="crispEdges"/><rect fill="#3d4157" x="597.8" y="99.1" width="24.4" height="24.65" shape-rendering="crispEdges"/><rect fill="#3d4157" x="622.2" y="99.1" width="36.6" height="24.65" shape-rendering="crispEdges"/><rect fill="#3d4157" x="658.8" y="99.1" width="24.4" height="24.65" shape-rendering="crispEdges"/><rect fill="#3d4157" x="683.2" y="99.1" width="24.4" height="24.65" shape-rendering="crispEdges"/><rect fill="#3d4157" x="707.6" y="99.1" width="36.6" height="24.65" shape-rendering="crispEdges"/><rect fill="#3d4157" x="744.2" y="99.1" width="24.4" height="24.65" shape-rendering="crispEdges"/><rect fill="#3d4157" x="768.6" y="99.1" width="24.4" height="24.65" shape-rendering="crispEdges"/><rect fill="#3d4157" x="793" y="99.1" width="36.6" height="24.65" shape-rendering="crispEdges"/><rect fill="#3d4157" x="829.6" y="99.1" width="24.4" height="24.65" shape-rendering="crispEdges"/><rect fill="#3d4157" x="854" y="99.1" width="24.4" height="24.65" shape-rendering="crispEdges"/><rect fill="#3d4157" x="878.4" y="99.1" width="36.6" height="24.65" shape-rendering="crispEdges"/><rect fill="#3d4157" x="915" y="99.1" width="24.4" height="24.65" shape-rendering="crispEdges"/><rect fill="#3d4157" x="939.4" y="99.1" width="24.4" height="24.65" shape-rendering="crispEdges"/><rect fill="#3d4157" x="963.8" y="99.1" width="36.6" height="24.65" shape-rendering="crispEdges"/><rect fill="#3d4157" x="1000.4" y="99.1" width="24.4" height="24.65" shape-rendering="crispEdges"/><rect fill="#3d4157" x="1024.8" y="99.1" width="183" height="24.65" shape-rendering="crispEdges"/><rect fill="#24273a" x="1207.8" y="99.1" width="12.2" height="24.65" shape-rendering="crispEdges"/><rect fill="#24273a" x="0" y="123.5" width="1220" height="24.65" shape-rendering="crispEdges"/><rect fill="#24273a" x="0" y="147.9" width="12.2" height="24.65" shape-rendering="crispEdges"/><rect fill="#24273a" x="12.2" y="147.9" width="12.2" height="24.65" shape-rendering="crispEdges"/><rect fill="#24273a" x="24.4" y="147.9" width="73.2" height="24.65" shape-rendering="crispEdges"/><rect fill="#24273a" x="97.6" y="147.9" width="12.2" height="24.65" shape-rendering="crispEdges"/><rect fill="#24273a" x="109.8" y="147.9" width="97.6" height="24.65" shape-rendering="crispEdges"/><rect fill="#24273a" x="207.4" y="147.9" width="12.2" height="24.65" shape-rendering="crispEdges"/><rect fill="#24273a" x="219.6" y="147.9" width="97.6" height="24.65" shape-rendering="crispEdges"/><rect fill="#24273a" x="317.2" y="147.9" width="12.2" height="24.65" shape-rendering="crispEdges"/><rect fill="#24273a" x="329.4" y="147.9" width="280.6" height="24.65" shape-rendering="crispEdges"/><rect fill="#24273a" x="610" y="147.9" width="12.2" height="24.65" shape-rendering="crispEdges"/><rect fill="#24273a" x="622.2" y="147.9" width="134.2" height="24.65" shape-rendering="crispEdges"/><rect fill="#24273a" x="756.4" y="147.9" width="12.2" height="24.65" shape-rendering="crispEdges"/><rect fill="#24273a" x="768.6" y="147.9" width="183" height="24.65" shape-rendering="crispEdges"/><rect fill="#24273a" x="951.6" y="147.9" width="268.4" height="24.65" shape-rendering="crispEdges"/><rect fill="#24273a" x="0" y="172.3" width="12.2" height="24.65" shape-rendering="crispEdges"/><rect fill="#24273a" x="12.2" y="172.3" width="561.2" height="24.65" shape-rendering="crispEdges"/><rect fill="#24273a" x="573.4" y="172.3" width="646.6" height="24.65" shape-rendering="crispEdges"/><rect fill="#24273a" x="0" y="196.7" width="1220" height="24.65" shape-rendering="crispEdges"/><rect fill="#24273a" x="0" y="221.1" width="1220" height="24.65" shape-rendering="crispEdges"/><rect fill="#24273a" x="0" y="245.5" width="1220" height="24.65" shape-rendering="crispEdges"/><rect fill="#24273a" x="0" y="269.9" width="1220" height="24.65" shape-rendering="crispEdges"/><rect fill="#24273a" x="0" y="294.3" width="1220" height="24.65" shape-rendering="crispEdges"/><rect fill="#24273a" x="0" y="318.7" width="1220" height="24.65" shape-rendering="crispEdges"/><rect fill="#24273a" x="0" y="343.1" width="1220" height="24.65" shape-rendering="crispEdges"/><rect fill="#24273a" x="0" y="367.5" width="1220" height="24.65" shape-rendering="crispEdges"/><rect fill="#24273a" x="0" y="391.9" width="1220" height="24.65" shape-rendering="crispEdges"/><rect fill="#24273a" x="0" y="416.3" width="1220" height="24.65" shape-rendering="crispEdges"/><rect fill="#24273a" x="0" y="440.7" width="1220" height="24.65" shape-rendering="crispEdges"/><rect fill="#24273a" x="0" y="465.1" width="1220" height="24.65" shape-rendering="crispEdges"/><rect fill="#24273a" x="0" y="489.5" width="1220" height="24.65" shape-rendering="crispEdges"/><rect fill="#24273a" x="0" y="513.9" width="1220" height="24.65" shape-rendering="crispEdges"/><rect fill="#24273a" x="0" y="538.3" width="1220" height="24.65" shape-rendering="crispEdges"/><rect fill="#24273a" x="0" y="562.7" width="1220" height="24.65" shape-rendering="crispEdges"/><rect fill="#24273a" x="0" y="587.1" width="1220" height="24.65" shape-rendering="crispEdges"/><rect fill="#24273a" x="0" y="611.5" width="1220" height="24.65" shape-rendering="crispEdges"/><rect fill="#24273a" x="0" y="635.9" width="1220" height="24.65" shape-rendering="crispEdges"/><rect fill="#24273a" x="0" y="660.3" width="1220" height="24.65" shape-rendering="crispEdges"/><rect fill="#24273a" x="0" y="684.7" width="1220" height="24.65" shape-rendering="crispEdges"/><rect fill="#1e2030" x="0" y="709.1" width="36.6" height="24.65" shape-rendering="crispEdges"/><rect fill="#1e2030" x="36.6" y="709.1" width="61" height="24.65" shape-rendering="crispEdges"/><rect fill="#1e2030" x="97.6" y="709.1" width="36.6" height="24.65" shape-rendering="crispEdges"/><rect fill="#1e2030" x="134.2" y="709.1" width="48.8" height="24.65" shape-rendering="crispEdges"/><rect fill="#1e2030" x="183" y="709.1" width="36.6" height="24.65" shape-rendering="crispEdges"/><rect fill="#1e2030" x="219.6" y="709.1" width="85.4" height="24.65" shape-rendering="crispEdges"/><rect fill="#1e2030" x="305" y="709.1" width="36.6" height="24.65" shape-rendering="crispEdges"/><rect fill="#1e2030" x="341.6" y="709.1" width="122" height="24.65" shape-rendering="crispEdges"/><rect fill="#1e2030" x="463.6" y="709.1" width="36.6" height="24.65" shape-rendering="crispEdges"/><rect fill="#1e2030" x="500.2" y="709.1" width="85.4" height="24.65" shape-rendering="crispEdges"/><rect fill="#1e2030" x="585.6" y="709.1" width="36.6" height="24.65" shape-rendering="crispEdges"/><rect fill="#1e2030" x="622.2" y="709.1" width="73.2" height="24.65" shape-rendering="crispEdges"/><rect fill="#1e2030" x="695.4" y="709.1" width="36.6" height="24.65" shape-rendering="crispEdges"/><rect fill="#1e2030" x="732" y="709.1" width="85.4" height="24.65" shape-rendering="crispEdges"/><rect fill="#1e2030" x="817.4" y="709.1" width="36.6" height="24.65" shape-rendering="crispEdges"/><rect fill="#1e2030" x="854" y="709.1" width="85.4" height="24.65" shape-rendering="crispEdges"/><rect fill="#1e2030" x="939.4" y="709.1" width="36.6" height="24.65" shape-rendering="crispEdges"/><rect fill="#1e2030" x="976" y="709.1" width="61" height="24.65" shape-rendering="crispEdges"/><rect fill="#1e2030" x="1037" y="709.1" width="36.6" height="24.65" shape-rendering="crispEdges"/><rect fill="#1e2030" x="1073.6" y="709.1" width="12.2" height="24.65" shape-rendering="crispEdges"/><rect fill="#1e2030" x="1085.8" y="709.1" width="24.4" height="24.65" shape-rendering="crispEdges"/><rect fill="#1e2030" x="1110.2" y="709.1" width="97.6" height="24.65" shape-rendering="crispEdges"/><rect fill="#1e2030" x="1207.8" y="709.1" width="12.2" height="24.65" shape-rendering="crispEdges"/>
    <g class="terminal-1906211230-matrix">
    <text class="terminal-1906211230-r2" x="12.2" y="20" textLength="12.2" clip-path="url(#terminal-1906211230-line-0)">⭘</text><text class="terminal-1906211230-r2" x="549" y="20" textLength="85.4" clip-path="url(#terminal-1906211230-line-0)">dbfresh</text><text class="terminal-1906211230-r1" x="1220" y="20" textLength="12.2" clip-path="url(#terminal-1906211230-line-0)">
</text><text class="terminal-1906211230-r1" x="1220" y="44.4" textLength="12.2" clip-path="url(#terminal-1906211230-line-1)">
</text><text class="terminal-1906211230-r3" x="12.2" y="68.8" textLength="280.6" clip-path="url(#terminal-1906211230-line-2)">&#160;&#160;object&#160;&#160;&#160;&#160;&#160;&#160;&#160;&#160;&#160;&#160;&#160;&#160;&#160;&#160;&#160;</text><text class="terminal-1906211230-r3" x="292.8" y="68.8" textLength="134.2" clip-path="url(#terminal-1906211230-line-2)">&#160;&#160;overall&#160;&#160;</text><text class="terminal-1906211230-r3" x="427" y="68.8" textLength="85.4" clip-path="url(#terminal-1906211230-line-2)">&#160;&#160;Sat&#160;&#160;</text><text class="terminal-1906211230-r3" x="512.4" y="68.8" textLength="85.4" clip-path="url(#terminal-1906211230-line-2)">&#160;&#160;Sun&#160;&#160;</text><text class="terminal-1906211230-r3" x="597.8" y="68.8" textLength="85.4" clip-path="url(#terminal-1906211230-line-2)">&#160;&#160;Mon&#160;&#160;</text><text class="terminal-1906211230-r3" x="683.2" y="68.8" textLength="85.4" clip-path="url(#terminal-1906211230-line-2)">&#160;&#160;Tue&#160;&#160;</text><text class="terminal-1906211230-r3" x="768.6" y="68.8" textLength="85.4" clip-path="url(#terminal-1906211230-line-2)">&#160;&#160;Wed&#160;&#160;</text><text class="terminal-1906211230-r3" x="854" y="68.8" textLength="85.4" clip-path="url(#terminal-1906211230-line-2)">&#160;&#160;Thu&#160;&#160;</text><text class="terminal-1906211230-r3" x="939.4" y="68.8" textLength="85.4" clip-path="url(#terminal-1906211230-line-2)">&#160;&#160;Fri&#160;&#160;</text><text class="terminal-1906211230-r1" x="1220" y="68.8" textLength="12.2" clip-path="url(#terminal-1906211230-line-2)">
</text><text class="terminal-1906211230-r2" x="12.2" y="93.2" textLength="280.6" clip-path="url(#terminal-1906211230-line-3)">&#160;&#160;orders_db.orders&#160;&#160;&#160;&#160;&#160;</text><text class="terminal-1906211230-r4" x="317.2" y="93.2" textLength="85.4" clip-path="url(#terminal-1906211230-line-3)">&#160;&#160;&#160;⊘&#160;&#160;&#160;</text><text class="terminal-1906211230-r5" x="451.4" y="93.2" textLength="36.6" clip-path="url(#terminal-1906211230-line-3)">&#160;·&#160;</text><text class="terminal-1906211230-r6" x="536.8" y="93.2" textLength="36.6" clip-path="url(#terminal-1906211230-line-3)">&#160;✓&#160;</text><text class="terminal-1906211230-r5" x="622.2" y="93.2" textLength="36.6" clip-path="url(#terminal-1906211230-line-3)">&#160;·&#160;</text><text class="terminal-1906211230-r5" x="707.6" y="93.2" textLength="36.6" clip-path="url(#terminal-1906211230-line-3)">&#160;·&#160;</text><text class="terminal-1906211230-r5" x="793" y="93.2" textLength="36.6" clip-path="url(#terminal-1906211230-line-3)">&#160;·&#160;</text><text class="terminal-1906211230-r4" x="878.4" y="93.2" textLength="36.6" clip-path="url(#terminal-1906211230-line-3)">&#160;⊘&#160;</text><text class="terminal-1906211230-r5" x="963.8" y="93.2" textLength="36.6" clip-path="url(#terminal-1906211230-line-3)">&#160;·&#160;</text><text class="terminal-1906211230-r1" x="1220" y="93.2" textLength="12.2" clip-path="url(#terminal-1906211230-line-3)">
</text><text class="terminal-1906211230-r2" x="12.2" y="117.6" textLength="280.6" clip-path="url(#terminal-1906211230-line-4)">&#160;&#160;warehouse.shipments&#160;&#160;</text><text class="terminal-1906211230-r6" x="317.2" y="117.6" textLength="85.4" clip-path="url(#terminal-1906211230-line-4)">&#160;&#160;&#160;✓&#160;&#160;&#160;</text><text class="terminal-1906211230-r5" x="451.4" y="117.6" textLength="36.6" clip-path="url(#terminal-1906211230-line-4)">&#160;·&#160;</text><text class="terminal-1906211230-r5" x="536.8" y="117.6" textLength="36.6" clip-path="url(#terminal-1906211230-line-4)">&#160;·&#160;</text><text class="terminal-1906211230-r5" x="622.2" y="117.6" textLength="36.6" clip-path="url(#terminal-1906211230-line-4)">&#160;·&#160;</text><text class="terminal-1906211230-r5" x="707.6" y="117.6" textLength="36.6" clip-path="url(#terminal-1906211230-line-4)">&#160;·&#160;</text><text class="terminal-1906211230-r5" x="793" y="117.6" textLength="36.6" clip-path="url(#terminal-1906211230-line-4)">&#160;·&#160;</text><text class="terminal-1906211230-r6" x="878.4" y="117.6" textLength="36.6" clip-path="url(#terminal-1906211230-line-4)">&#160;✓&#160;</text><text class="terminal-1906211230-r5" x="963.8" y="117.6" textLength="36.6" clip-path="url(#terminal-1906211230-line-4)">&#160;·&#160;</text><text class="terminal-1906211230-r1" x="1220" y="117.6" textLength="12.2" clip-path="url(#terminal-1906211230-line-4)">
</text><text class="terminal-1906211230-r1" x="1220" y="142" textLength="12.2" clip-path="url(#terminal-1906211230-line-5)">
</text><text class="terminal-1906211230-r6" x="12.2" y="166.4" textLength="12.2" clip-path="url(#terminal-1906211230-line-6)">✓</text><text class="terminal-1906211230-r7" x="24.4" y="166.4" textLength="73.2" clip-path="url(#terminal-1906211230-line-6)">&#160;ok&#160;&#160;&#160;</text><text class="terminal-1906211230-r8" x="97.6" y="166.4" textLength="12.2" clip-path="url(#terminal-1906211230-line-6)">!</text><text class="terminal-1906211230-r7" x="109.8" y="166.4" textLength="97.6" clip-path="url(#terminal-1906211230-line-6)">&#160;warn&#160;&#160;&#160;</text><text class="terminal-1906211230-r9" x="207.4" y="166.4" textLength="12.2" clip-path="url(#terminal-1906211230-line-6)">✗</text><text class="terminal-1906211230-r7" x="219.6" y="166.4" textLength="97.6" clip-path="url(#terminal-1906211230-line-6)">&#160;fail&#160;&#160;&#160;</text><text class="terminal-1906211230-r4" x="317.2" y="166.4" textLength="12.2" clip-path="url(#terminal-1906211230-line-6)">⊘</text><text class="terminal-1906211230-r7" x="329.4" y="166.4" textLength="280.6" clip-path="url(#terminal-1906211230-line-6)">&#160;error&#160;(unreachable)&#160;&#160;&#160;</text><text class="terminal-1906211230-r10" x="610" y="166.4" textLength="12.2" clip-path="url(#terminal-1906211230-line-6)">–</text><text class="terminal-1906211230-r7" x="622.2" y="166.4" textLength="134.2" clip-path="url(#terminal-1906211230-line-6)">&#160;skipped&#160;&#160;&#160;</text><text class="terminal-1906211230-r5" x="756.4" y="166.4" textLength="12.2" clip-path="url(#terminal-1906211230-line-6)">·</text><text class="terminal-1906211230-r7" x="768.6" y="166.4" textLength="183" clip-path="url(#terminal-1906211230-line-6)">&#160;never&#160;observed</text><text class="terminal-1906211230-r1" x="1220" y="166.4" textLength="12.2" clip-path="url(#terminal-1906211230-line-6)">
</text><text class="terminal-1906211230-r7" x="12.2" y="190.8" textLength="561.2" clip-path="url(#terminal-1906211230-line-7)">last&#160;run:&#160;2026-07-09&#160;12:00&#160;·&#160;1&#160;checks&#160;·&#160;all&#160;ok</text><text class="terminal-1906211230-r1" x="1220" y="190.8" textLength="12.2" clip-path="url(#terminal-1906211230-line-7)">
</text><text class="terminal-1906211230-r1" x="1220" y="215.2" textLength="12.2" clip-path="url(#terminal-1906211230-line-8)">
</text><text class="terminal-1906211230-r1" x="1220" y="239.6" textLength="12.2" clip-path="url(#terminal-1906211230-line-9)">
</text><text class="terminal-1906211230-r1" x="1220" y="264" textLength="12.2" clip-path="url(#terminal-1906211230-line-10)">
</text><text class="terminal-1906211230-r1" x="1220" y="288.4" textLength="12.2" clip-path="url(#terminal-1906211230-line-11)">
</text><text class="terminal-1906211230-r1" x="1220" y="312.8" textLength="12.2" clip-path="url(#terminal-1906211230-line-12)">
</text><text class="terminal-1906211230-r1" x="1220" y="337.2" textLength="12.2" clip-path="url(#terminal-1906211230-line-13)">
</text><text class="terminal-1906211230-r1" x="1220" y="361.6" textLength="12.2" clip-path="url(#terminal-1906211230-line-14)">
</text><text class="terminal-1906211230-r1" x="1220" y="386" textLength="12.2" clip-path="url(#terminal-1906211230-line-15)">
</text><text class="terminal-1906211230-r1" x="1220" y="410.4" textLength="12.2" clip-path="url(#terminal-1906211230-line-16)">
</text><text class="terminal-1906211230-r1" x="1220" y="434.8" textLength="12.2" clip-path="url(#terminal-1906211230-line-17)">
</text><text class="terminal-1906211230-r1" x="1220" y="459.2" textLength="12.2" clip-path="url(#terminal-1906211230-line-18)">
</text><text class="terminal-1906211230-r1" x="1220" y="483.6" textLength="12.2" clip-path="url(#terminal-1906211230-line-19)">
</text><text class="terminal-1906211230-r1" x="1220" y="508" textLength="12.2" clip-path="url(#terminal-1906211230-line-20)">
</text><text class="terminal-1906211230-r1" x="1220" y="532.4" textLength="12.2" clip-path="url(#terminal-1906211230-line-21)">
</text><text class="terminal-1906211230-r1" x="1220" y="556.8" textLength="12.2" clip-path="url(#terminal-1906211230-line-22)">
</text><text class="terminal-1906211230-r1" x="1220" y="581.2" textLength="12.2" clip-path="url(#terminal-1906211230-line-23)">
</text><text class="terminal-1906211230-r1" x="1220" y="605.6" textLength="12.2" clip-path="url(#terminal-1906211230-line-24)">
</text><text class="terminal-1906211230-r1" x="1220" y="630" textLength="12.2" clip-path="url(#terminal-1906211230-line-25)">
</text><text class="terminal-1906211230-r1" x="1220" y="654.4" textLength="12.2" clip-path="url(#terminal-1906211230-line-26)">
</text><text class="terminal-1906211230-r1" x="1220" y="678.8" textLength="12.2" clip-path="url(#terminal-1906211230-line-27)">
</text><text class="terminal-1906211230-r1" x="1220" y="703.2" textLength="12.2" clip-path="url(#terminal-1906211230-line-28)">
</text><text class="terminal-1906211230-r11" x="0" y="727.6" textLength="36.6" clip-path="url(#terminal-1906211230-line-29)">&#160;⏎&#160;</text><text class="terminal-1906211230-r2" x="36.6" y="727.6" textLength="61" clip-path="url(#terminal-1906211230-line-29)">Open&#160;</text><text class="terminal-1906211230-r11" x="97.6" y="727.6" textLength="36.6" clip-path="url(#terminal-1906211230-line-29)">&#160;r&#160;</text><text class="terminal-1906211230-r2" x="134.2" y="727.6" textLength="48.8" clip-path="url(#terminal-1906211230-line-29)">Run&#160;</text><text class="terminal-1906211230-r11" x="183" y="727.6" textLength="36.6" clip-path="url(#terminal-1906211230-line-29)">&#160;R&#160;</text><text class="terminal-1906211230-r2" x="219.6" y="727.6" textLength="85.4" clip-path="url(#terminal-1906211230-line-29)">Reload&#160;</text><text class="terminal-1906211230-r11" x="305" y="727.6" textLength="36.6" clip-path="url(#terminal-1906211230-line-29)">&#160;c&#160;</text><text class="terminal-1906211230-r2" x="341.6" y="727.6" textLength="122" clip-path="url(#terminal-1906211230-line-29)">Configure&#160;</text><text class="terminal-1906211230-r11" x="463.6" y="727.6" textLength="36.6" clip-path="url(#terminal-1906211230-line-29)">&#160;p&#160;</text><text class="terminal-1906211230-r2" x="500.2" y="727.6" textLength="85.4" clip-path="url(#terminal-1906211230-line-29)">Report&#160;</text><text class="terminal-1906211230-r11" x="585.6" y="727.6" textLength="36.6" clip-path="url(#terminal-1906211230-line-29)">&#160;s&#160;</text><text class="terminal-1906211230-r2" x="622.2" y="727.6" textLength="73.2" clip-path="url(#terminal-1906211230-line-29)">Store&#160;</text><text class="terminal-1906211230-r11" x="695.4" y="727.6" textLength="36.6" clip-path="url(#terminal-1906211230-line-29)">&#160;f&#160;</text><text class="terminal-1906211230-r2" x="732" y="727.6" textLength="85.4" clip-path="url(#terminal-1906211230-line-29)">Non-OK&#160;</text><text class="terminal-1906211230-r11" x="817.4" y="727.6" textLength="36.6" clip-path="url(#terminal-1906211230-line-29)">&#160;/&#160;</text><text class="terminal-1906211230-r2" x="854" y="727.6" textLength="85.4" clip-path="url(#terminal-1906211230-line-29)">Search&#160;</text><text class="terminal-1906211230-r11" x="939.4" y="727.6" textLength="36.6" clip-path="url(#terminal-1906211230-line-29)">&#160;o&#160;</text><text class="terminal-1906211230-r2" x="976" y="727.6" textLength="61" clip-path="url(#terminal-1906211230-line-29)">Sort&#160;</text><text class="terminal-1906211230-r11" x="1037" y="727.6" textLength="36.6" clip-path="url(#terminal-1906211230-line-29)">&#160;?&#160;</text><text class="terminal-1906211230-r12" x="1073.6" y="727.6" textLength="12.2" clip-path="url(#terminal-1906211230-line-29)">▏</text><text class="terminal-1906211230-r11" x="1085.8" y="727.6" textLength="24.4" clip-path="url(#terminal-1906211230-line-29)">^p</text><text class="terminal-1906211230-r2" x="1110.2" y="727.6" textLength="97.6" clip-path="url(#terminal-1906211230-line-29)">&#160;palette</text>
    </g>
    </g>
</svg>
